<svg width="3167" height="1146" xmlns="http://www.w3.org/2000/svg" xmlns:xlink="http://www.w3.org/1999/xlink" xml:space="preserve" overflow="hidden"><g transform="translate(-449 -389)"><g><path d="M1620 500.347C1620 444.927 1664.93 400 1720.35 400L2695.65 400C2751.07 400 2796 444.927 2796 500.347L2796 1427.65C2796 1483.07 2751.07 1528 2695.65 1528L1720.35 1528C1664.93 1528 1620 1483.07 1620 1427.65Z" stroke="#000000" stroke-width="13.75" stroke-linecap="butt" stroke-linejoin="miter" stroke-miterlimit="8" stroke-opacity="1" fill="#D9D9D9" fill-rule="evenodd" fill-opacity="1"/><text fill="#000000" fill-opacity="1" font-family="Calibri,Calibri_MSFontService,sans-serif" font-style="normal" font-variant="normal" font-weight="400" font-stretch="normal" font-size="83" text-anchor="start" direction="ltr" writing-mode="lr-tb" unicode-bidi="normal" text-decoration="none" transform="matrix(1 0 0 1 503.345 991)">Import</text><text fill="#000000" fill-opacity="1" font-family="Calibri,Calibri_MSFontService,sans-serif" font-style="normal" font-variant="normal" font-weight="400" font-stretch="normal" font-size="83" text-anchor="start" direction="ltr" writing-mode="lr-tb" unicode-bidi="normal" text-decoration="none" transform="matrix(1 0 0 1 1159.45 991)">Tidy</text><text fill="#000000" fill-opacity="1" font-family="Calibri,Calibri_MSFontService,sans-serif" font-style="normal" font-variant="normal" font-weight="400" font-stretch="normal" font-size="83" text-anchor="start" direction="ltr" writing-mode="lr-tb" unicode-bidi="normal" text-decoration="none" transform="matrix(1 0 0 1 3099.67 991)">Communicate</text><path d="M769 957.125 1092.1 957.125 1092.1 970.875 769 970.875ZM1085.22 929.625 1126.47 964 1085.22 998.375Z" fill="#000000" fill-rule="nonzero" fill-opacity="1"/><path d="M1334 957.125 1585.03 957.125 1585.03 970.875 1334 970.875ZM1578.16 929.625 1619.41 964 1578.16 998.375Z" fill="#000000" fill-rule="nonzero" fill-opacity="1"/><path d="M2796 957.125 3032.78 957.125 3032.78 970.875 2796 970.875ZM3025.91 929.625 3067.16 964 3025.91 998.375Z" fill="#000000" fill-rule="nonzero" fill-opacity="1"/><text fill="#000000" fill-opacity="1" font-family="Calibri,Calibri_MSFontService,sans-serif" font-style="italic" font-variant="normal" font-weight="400" font-stretch="normal" font-size="83" text-anchor="start" direction="ltr" writing-mode="lr-tb" unicode-bidi="normal" text-decoration="none" transform="matrix(1 0 0 1 1670.84 508)">Understand</text><path d="M2514.72 685.426 2528.99 700.432 2542.45 716.106 2554.98 732.287 2566.58 748.938 2577.26 766.023 2587.01 783.504 2595.83 801.346 2603.72 819.513 2610.68 837.967 2616.72 856.673 2621.83 875.594 2626 894.696 2629.25 913.94 2631.57 933.293 2632.96 952.717 2633.43 972.177 2632.96 991.637 2631.57 1011.06 2629.25 1030.41 2626 1049.66 2621.83 1068.76 2616.72 1087.68 2610.68 1106.39 2603.72 1124.84 2595.83 1143.01 2587.01 1160.85 2577.26 1178.33 2566.58 1195.42 2554.94 1212.12 2538.12 1232.99 2527.42 1224.36 2544.08 1203.68 2543.8 1204.06 2555.2 1187.69 2555.01 1187.98 2565.51 1171.19 2565.33 1171.48 2574.92 1154.3 2574.76 1154.6 2583.43 1137.07 2583.29 1137.37 2591.04 1119.52 2590.92 1119.83 2597.76 1101.69 2597.65 1102.01 2603.58 1083.62 2603.49 1083.94 2608.51 1065.34 2608.43 1065.66 2612.53 1046.88 2612.47 1047.21 2615.67 1028.29 2615.62 1028.61 2617.9 1009.59 2617.87 1009.91 2619.24 990.817 2619.22 991.145 2619.68 972.013 2619.68 972.341 2619.22 953.209 2619.24 953.536 2617.87 934.44 2617.9 934.767 2615.62 915.741 2615.67 916.067 2612.47 897.148 2612.53 897.472 2608.43 878.694 2608.51 879.017 2603.49 860.416 2603.58 860.736 2597.65 842.348 2597.76 842.664 2590.92 824.525 2591.04 824.837 2583.29 806.981 2583.43 807.288 2574.76 789.751 2574.92 790.052 2565.33 772.87 2565.51 773.165 2555.01 756.372 2555.2 756.659 2543.8 740.291 2544 740.57 2531.68 724.663 2531.9 724.932 2518.67 709.521 2518.9 709.779 2504.76 694.9ZM2562.89 1246.6 2509.74 1254.19 2511.85 1200.54Z" fill="#000000" fill-rule="nonzero" fill-opacity="1"/><text fill="#000000" fill-opacity="1" font-family="Calibri,Calibri_MSFontService,sans-serif" font-style="normal" font-variant="normal" font-weight="400" font-stretch="normal" font-size="83" text-anchor="start" direction="ltr" writing-mode="lr-tb" unicode-bidi="normal" text-decoration="none" transform="matrix(1 0 0 1 1720.81 977)">Transform</text><text fill="#000000" fill-opacity="1" font-family="Calibri,Calibri_MSFontService,sans-serif" font-style="normal" font-variant="normal" font-weight="400" font-stretch="normal" font-size="83" text-anchor="start" direction="ltr" writing-mode="lr-tb" unicode-bidi="normal" text-decoration="none" transform="matrix(1 0 0 1 2398.67 631)">Visualise</text><text fill="#000000" fill-opacity="1" font-family="Calibri,Calibri_MSFontService,sans-serif" font-style="normal" font-variant="normal" font-weight="400" font-stretch="normal" font-size="83" text-anchor="start" direction="ltr" writing-mode="lr-tb" unicode-bidi="normal" text-decoration="none" transform="matrix(1 0 0 1 2351.65 1350)">Model</text><path d="M1839.54 854.265 1846.04 834.61 1853.52 815.351 1861.88 796.67 1871.1 778.585 1881.13 761.115 1891.95 744.276 1903.53 728.085 1915.83 712.561 1928.82 697.72 1942.47 683.579 1956.75 670.156 1971.63 657.466 1987.07 645.528 2003.04 634.358 2019.51 623.972 2036.45 614.389 2053.83 605.624 2071.62 597.694 2089.78 590.617 2108.29 584.409 2127.1 579.088 2146.19 574.671 2165.54 571.174 2185.09 568.614 2204.83 567.009 2224.73 566.376 2244.74 566.732 2264.84 568.094 2285.06 570.486 2311.39 575.482 2308.83 588.991 2282.74 584.04 2283.21 584.113 2263.4 581.769 2263.74 581.801 2243.98 580.463 2244.33 580.477 2224.65 580.127 2224.99 580.125 2205.44 580.747 2205.78 580.728 2186.38 582.305 2186.71 582.27 2167.49 584.786 2167.82 584.734 2148.8 588.172 2149.13 588.104 2130.36 592.447 2130.68 592.364 2112.19 597.595 2112.5 597.498 2094.31 603.601 2094.62 603.488 2076.77 610.446 2077.07 610.319 2059.58 618.115 2059.88 617.975 2042.79 626.592 2043.08 626.437 2026.42 635.86 2026.71 635.691 2010.51 645.902 2010.78 645.72 1995.08 656.702 1995.35 656.506 1980.17 668.243 1980.42 668.035 1965.8 680.509 1966.05 680.288 1952.01 693.483 1952.25 693.249 1938.83 707.149 1939.05 706.903 1926.28 721.491 1926.5 721.232 1914.41 736.491 1914.61 736.221 1903.23 752.134 1903.43 751.852 1892.79 768.404 1892.97 768.111 1883.11 785.283 1883.27 784.981 1874.21 802.757 1874.36 802.445 1866.14 820.81 1866.28 820.489 1858.92 839.425 1859.04 839.097 1852.59 858.587ZM2311.72 547.217 2343.47 590.515 2295.16 613.944Z" fill="#000000" fill-rule="nonzero" fill-opacity="1"/><path d="M2284.59 1373.87 2264.03 1376.26 2243.41 1377.61 2222.95 1377.91 2202.67 1377.19 2182.59 1375.46 2162.76 1372.75 2143.2 1369.09 2123.93 1364.49 2105 1358.97 2086.42 1352.56 2068.22 1345.28 2050.44 1337.14 2033.1 1328.18 2016.24 1318.41 1999.87 1307.86 1984.03 1296.54 1968.75 1284.48 1954.06 1271.7 1939.98 1258.22 1926.55 1244.06 1913.79 1229.25 1901.72 1213.8 1890.39 1197.74 1879.82 1181.09 1870.04 1163.87 1861.07 1146.1 1852.95 1127.8 1845.71 1109.01 1839.34 1089.66 1832.76 1063.68 1846.09 1060.31 1852.61 1086.05 1852.48 1085.59 1858.71 1104.55 1858.6 1104.22 1865.72 1122.7 1865.59 1122.38 1873.57 1140.36 1873.42 1140.06 1882.24 1157.52 1882.08 1157.22 1891.69 1174.15 1891.52 1173.86 1901.91 1190.23 1901.73 1189.95 1912.86 1205.74 1912.66 1205.47 1924.52 1220.66 1924.31 1220.4 1936.86 1234.96 1936.64 1234.72 1949.84 1248.63 1949.61 1248.4 1963.45 1261.65 1963.21 1261.43 1977.65 1274 1977.4 1273.79 1992.42 1285.64 1992.16 1285.45 2007.73 1296.57 2007.46 1296.39 2023.55 1306.77 2023.27 1306.6 2039.85 1316.2 2039.56 1316.04 2056.61 1324.85 2056.31 1324.71 2073.79 1332.7 2073.48 1332.57 2091.37 1339.73 2091.06 1339.61 2109.32 1345.92 2109 1345.82 2127.62 1351.24 2127.29 1351.15 2146.23 1355.68 2145.9 1355.61 2165.12 1359.21 2164.79 1359.15 2184.28 1361.81 2183.94 1361.78 2203.67 1363.47 2203.33 1363.45 2223.27 1364.16 2222.92 1364.16 2243.04 1363.86 2242.69 1363.88 2262.96 1362.55 2262.61 1362.59 2283.01 1360.21ZM1807 1075.31 1832.86 1028.25 1874.48 1062.17Z" fill="#000000" fill-rule="nonzero" fill-opacity="1"/></g></g></svg>