<?xml version="1.0" encoding="UTF-8"?>
<svg id="LOGO" xmlns="http://www.w3.org/2000/svg" viewBox="0 0 1409.91941 453.53827">
  <defs>
    <style>
      .cls-1 {
        fill: #2e2d62;
      }

      .cls-1, .cls-2, .cls-3, .cls-4 {
        stroke-width: 0px;
      }

      .cls-2 {
        fill: #fff;
      }

      .cls-3 {
        fill: #00bed5;
      }

      .cls-4 {
        fill: #008aad;
      }
    </style>
  </defs>
  <g>
    <rect class="cls-1" x="85.03953" y="85.03554" width="283.46325" height="283.46325"/>
    <path class="cls-2" d="m337.30668,116.23152h-33.05127l-44.43266,47.31625v-47.31625h-64.20688v62.81185c0,13.44694-9.95655,21.25378-23.16458,21.25378s-23.16499-7.80683-23.16499-21.25378v-62.81185h-33.05127v63.29176c0,28.34576,22.88515,44.60633,48.70141,47.24386h-48.70141v110.53562h33.05127v-40.96583h14.43776l30.5426,40.96563h143.04001v-22.32587h-38.74197v-65.88361h38.74197v-29.16162l-47.37412-48.50868,47.37412-48.35553v-6.8357Zm-110.53562,76.72031v51.28164c-7.03742-11.88409-23.22232-17.4019-47.24379-17.46236,21.43509-2.17685,41.25093-13.74151,47.24379-33.81929Zm-77.48476,56.14123h30.24085c12.43256,0,17.47098,4.81924,17.47098,12.38239s-5.03842,12.53559-17.47098,12.53559h-30.24085v-24.91799Zm116.22714,65.88361h-38.74238v15.49017l-27.26922-35.73877c20.76255-3.82232,31.48464-14.55826,31.48464-33.25263,0-4.61344-.65972-8.73167-1.95518-12.38239h36.48214v65.88361Zm38.74197-88.20954h-44.43266v-47.44754l44.43266,47.44754Z"/>
  </g>
  <g>
    <polygon class="cls-3" points="425.96738 85.03284 391.27358 49.50727 368.50278 49.50727 368.50278 85.03284 368.50278 368.4988 564.28912 368.4988 564.28912 226.66637 425.96738 85.03284"/>
    <polygon class="cls-4" points="425.96738 85.03284 564.28912 226.66637 564.28912 368.4988 651.96735 368.4988 651.96735 85.03284 425.96738 85.03284"/>
  </g>
  <g>
    <path class="cls-1" d="m783.69336,172.44775h-10.38574v-37.43506h-.64355l-14.00781,30.99463h-10.70703l-14.08887-30.99463h-.64355v37.43506h-10.38574v-56.35352h13.04199l17.14746,38.64258h.64453l17.06641-38.64258h12.96191v56.35352Z"/>
    <path class="cls-1" d="m825.92871,172.44775l-11.75391-21.97803h-9.17676v21.97803h-10.38574v-56.35352h22.2998c11.27148,0,18.19434,6.68164,18.19434,16.58398,0,7.64795-4.18555,13.2832-10.86816,15.85938l12.96191,23.91016h-11.27148Zm-20.93066-30.99463h10.70703c5.47461,0,8.77441-3.46143,8.77441-8.21143,0-4.99121-3.2998-8.13086-8.77441-8.13086h-10.70703v16.34229Z"/>
    <path class="cls-1" d="m868.94824,173.25293c-17.22754,0-27.69336-12.15625-27.69336-28.74072,0-17.06689,11.10938-29.22314,27.69336-29.22314,12.71973,0,22.86328,6.76221,24.7959,19.24072h-11.43164c-1.77148-5.79639-6.52148-9.41895-13.36426-9.41895-10.0625,0-16.8252,8.45264-16.8252,19.40137,0,11.35156,7.24512,18.91895,16.8252,18.91895,7.32617,0,12.47852-3.62256,14.25-9.09717h11.43164c-1.85156,12.07568-12.63965,18.91895-25.68164,18.91895Z"/>
    <path class="cls-1" d="m962.16602,162.94824v9.49951h-38.48145v-56.35352h10.38574v46.854h28.0957Z"/>
    <path class="cls-1" d="m1006.2793,164.71924v7.72852h-4.34766c-3.7832,0-6.7627-1.12695-8.13086-4.83008-2.7373,3.46143-6.92383,5.63525-13.2832,5.63525-8.21191,0-14.25-3.86426-14.25-11.83447,0-7.72852,5.87695-11.51221,13.28418-12.23682l12.55859-1.28809v-1.69043c0-4.42773-2.81738-6.60156-6.7627-6.60156-4.34668,0-6.60156,2.41504-7.24512,6.03809h-10.30469c.80469-8.37256,7.24512-14.24951,17.5498-14.24951,9.41895,0,17.06738,4.74951,17.06738,15.5376v14.73242c0,2.09326.96582,3.05908,2.89844,3.05908h.96582Zm-14.16895-9.74121l-9.0166.96631c-3.70312.40234-6.52148,1.93213-6.52148,5.07178,0,3.22021,2.49609,4.34717,5.71582,4.34717,4.34766,0,9.82227-2.09326,9.82227-8.45312v-1.93213Z"/>
    <path class="cls-1" d="m1052.28516,152.24072c0,12.80078-8.13086,21.01221-18.91895,21.01221-6.2793,0-10.0625-2.979-11.99512-5.55518h-.72461l-.88477,4.75h-8.37305v-57.15869h10.30469v20.68994c2.17383-2.41553,6.19922-4.58887,11.67285-4.58887,10.54688,0,18.91895,7.72852,18.91895,20.85059Zm-10.30469,0c0-7.08447-4.10547-11.91455-10.22363-11.91455-6.11914,0-10.06348,4.83008-10.06348,11.91455,0,7.24561,3.94434,12.07617,10.06348,12.07617,6.11816,0,10.22363-4.83057,10.22363-12.07617Z"/>
    <path class="cls-1" d="m1056.88672,152.24072c0-12.39746,9.17773-20.85059,21.25293-20.85059,12.07617,0,21.25391,8.5332,21.25391,20.85059,0,12.47852-9.09766,21.01221-21.25391,21.01221-11.99512,0-21.25293-8.61426-21.25293-21.01221Zm32.28223,0c0-6.68164-4.42773-11.91455-11.0293-11.91455-6.60059,0-10.94824,5.23291-10.94824,11.91455,0,6.7627,4.34766,12.07617,10.94824,12.07617,6.68262,0,11.0293-5.31348,11.0293-12.07617Z"/>
    <path class="cls-1" d="m1105.60449,132.19482h9.33887l.96582,5.71631h.64453c2.49512-4.02539,5.23242-6.521,11.99512-6.521h2.89746v10.30469c-1.44824-.2417-2.89746-.32227-4.34668-.32227-8.85547,0-11.19043,6.521-11.19043,12.31738v18.75781h-10.30469v-40.25293Z"/>
    <path class="cls-1" d="m1173.46875,164.71924v7.72852h-4.34766c-3.7832,0-6.7627-1.12695-8.13086-4.83008-2.7373,3.46143-6.92383,5.63525-13.2832,5.63525-8.21191,0-14.25-3.86426-14.25-11.83447,0-7.72852,5.87695-11.51221,13.28418-12.23682l12.55859-1.28809v-1.69043c0-4.42773-2.81738-6.60156-6.7627-6.60156-4.34668,0-6.60156,2.41504-7.24512,6.03809h-10.30469c.80469-8.37256,7.24512-14.24951,17.5498-14.24951,9.41895,0,17.06738,4.74951,17.06738,15.5376v14.73242c0,2.09326.96582,3.05908,2.89844,3.05908h.96582Zm-14.16895-9.74121l-9.0166.96631c-3.70312.40234-6.52148,1.93213-6.52148,5.07178,0,3.22021,2.49609,4.34717,5.71582,4.34717,4.34766,0,9.82227-2.09326,9.82227-8.45312v-1.93213Z"/>
    <path class="cls-1" d="m1182.05566,161.49902v-21.17285h-8.61426v-8.13135h2.7373c4.91113,0,6.84277-1.771,6.84277-6.11816v-4.83008h9.33887v10.94824h10.5459v8.13135h-10.5459v19.8042c0,2.25439.56348,4.99121,5.39355,4.99121,1.20801,0,2.7373-.24121,3.94531-.56348v7.80908c-1.77148.40283-4.18652.88574-7.08496.88574-11.27051,0-12.55859-7.32617-12.55859-11.75391Z"/>
    <path class="cls-1" d="m1204.71582,152.24072c0-12.39746,9.17773-20.85059,21.25293-20.85059,12.07617,0,21.25391,8.5332,21.25391,20.85059,0,12.47852-9.09668,21.01221-21.25391,21.01221-11.99512,0-21.25293-8.61426-21.25293-21.01221Zm32.28223,0c0-6.68164-4.42773-11.91455-11.0293-11.91455-6.60059,0-10.94824,5.23291-10.94824,11.91455,0,6.7627,4.34766,12.07617,10.94824,12.07617,6.68262,0,11.0293-5.31348,11.0293-12.07617Z"/>
    <path class="cls-1" d="m1253.43359,132.19482h9.33887l.96582,5.71631h.64453c2.49512-4.02539,5.23242-6.521,11.99512-6.521h2.89844v10.30469c-1.44922-.2417-2.89844-.32227-4.34766-.32227-8.85547,0-11.19043,6.521-11.19043,12.31738v18.75781h-10.30469v-40.25293Z"/>
    <path class="cls-1" d="m1285.99512,188.46826v-7.64795c1.5293.32178,2.97852.48291,4.18652.48291,3.78418,0,7.24512-1.36865,8.85547-5.39355l1.36816-3.46191h-3.21973l-15.37695-40.25293h10.62695l10.94922,29.70654h.64355l10.22461-29.70654h10.62695l-16.2627,45.24414c-1.20703,3.54248-4.34668,11.91504-16.10059,11.91504-2.65723,0-4.66992-.40283-6.52148-.88574Z"/>
    <path class="cls-1" d="m720.57715,234.74072c0-12.39746,9.17773-20.85059,21.25293-20.85059,12.07617,0,21.25391,8.5332,21.25391,20.85059,0,12.47852-9.09668,21.01172-21.25391,21.01172-11.99512,0-21.25293-8.61328-21.25293-21.01172Zm32.28223,0c0-6.68164-4.42773-11.91504-11.0293-11.91504-6.60059,0-10.94824,5.2334-10.94824,11.91504,0,6.7627,4.34766,12.07617,10.94824,12.07617,6.68262,0,11.0293-5.31348,11.0293-12.07617Z"/>
    <path class="cls-1" d="m783.77832,214.69482h10.22461v8.13086h-10.22461v32.12207h-10.30469v-32.12207h-8.45312v-8.13086h8.45312v-4.34668c0-8.37305,5.55469-12.55957,13.44434-12.55957,3.30078,0,5.7959.72461,7.72852,1.36914l-1.77148,7.4873c-1.36816-.4834-2.97852-.64453-4.10547-.64453-2.97852,0-4.99121,1.5293-4.99121,4.91113v3.7832Z"/>
    <path class="cls-1" d="m882.47266,254.94775h-10.38574v-37.43457h-.64355l-14.00781,30.99414h-10.70703l-14.08887-30.99414h-.64355v37.43457h-10.38574v-56.35352h13.04199l17.14746,38.64258h.64453l17.06641-38.64258h12.96191v56.35352Z"/>
    <path class="cls-1" d="m929.74023,242.22803c-1.60938,8.29199-8.5332,13.52441-18.75781,13.52441-11.99512,0-20.68945-8.13086-20.68945-20.52832,0-13.2832,9.17773-21.33398,20.28711-21.33398,9.90234,0,19.08008,6.2793,19.08008,20.68945,0,.9668-.08105,1.85156-.16113,2.97949h-28.98242c.40332,5.7959,4.18652,9.98242,10.46582,9.98242,4.50879,0,7.72852-1.85156,8.85645-5.31348h9.90137Zm-29.14258-11.59277h19.24121c-.24219-4.99121-3.94531-8.5332-9.25879-8.5332-5.55469,0-9.25781,3.70312-9.98242,8.5332Z"/>
    <path class="cls-1" d="m975.54492,197.78857v57.15918h-8.37305l-.88574-4.75h-.72461c-1.93164,2.57617-5.71582,5.55469-11.99512,5.55469-10.78711,0-18.91895-8.21094-18.91895-21.01172,0-13.12207,8.37305-20.85059,18.91895-20.85059,5.47461,0,9.5,2.17383,11.67383,4.58887v-20.69043h10.30469Zm-10.30469,36.95215c0-7.08398-3.94531-11.91504-10.06348-11.91504s-10.22461,4.83105-10.22461,11.91504c0,7.24609,4.10645,12.07617,10.22461,12.07617s10.06348-4.83008,10.06348-12.07617Z"/>
    <path class="cls-1" d="m982.28809,203.34424c0-3.54297,2.97852-6.28027,6.35938-6.28027s6.19922,2.7373,6.19922,6.28027c0,3.30078-2.81836,6.19824-6.19922,6.19824s-6.35938-2.89746-6.35938-6.19824Zm1.20703,11.35059h10.30469v40.25293h-10.30469v-40.25293Z"/>
    <path class="cls-1" d="m999.74805,234.98291c0-12.63965,9.17773-21.09277,20.93164-21.09277,9.33789,0,18.19434,4.99121,19.48242,15.53711h-10.30469c-.88574-3.70312-4.34766-6.60156-9.17773-6.60156-6.11914,0-10.62695,4.99219-10.62695,12.15723,0,7.08398,4.18652,11.83398,10.78809,11.83398,4.66895,0,7.80859-2.09375,9.09668-5.79688h10.38477c-1.36816,9.0166-9.0166,14.73242-19.48145,14.73242-12.55957,0-21.09277-8.61328-21.09277-20.76953Z"/>
    <path class="cls-1" d="m1084.10547,247.21924v7.72852h-4.34766c-3.7832,0-6.7627-1.12695-8.13086-4.83008-2.7373,3.46191-6.92383,5.63477-13.2832,5.63477-8.21191,0-14.25-3.86426-14.25-11.83398,0-7.72852,5.87695-11.51172,13.28418-12.23633l12.55859-1.28809v-1.69141c0-4.42773-2.81738-6.60059-6.7627-6.60059-4.34668,0-6.60156,2.41504-7.24512,6.03711h-10.30469c.80469-8.37207,7.24512-14.24902,17.5498-14.24902,9.41895,0,17.06738,4.75,17.06738,15.53711v14.73242c0,2.09375.96582,3.05957,2.89844,3.05957h.96582Zm-14.16895-9.74121l-9.0166.96582c-3.70312.40234-6.52148,1.93262-6.52148,5.07227,0,3.21973,2.49609,4.34766,5.71582,4.34766,4.34766,0,9.82227-2.09375,9.82227-8.45312v-1.93262Z"/>
    <path class="cls-1" d="m1089.17383,197.78857h10.30469v57.15918h-10.30469v-57.15918Z"/>
    <path class="cls-1" d="m742.47461,338.25293c-13.44434,0-20.60938-7.24512-21.01172-18.0332h10.46582c.48242,5.63574,4.10547,9.0166,10.5459,9.0166,4.83008,0,8.85547-2.0127,8.85547-6.92285,0-5.71582-5.55469-7.56738-10.70703-9.09766l-3.2207-.96582c-6.92285-2.09277-14.16895-6.36035-14.16895-15.69873,0-10.06348,8.21191-16.2627,19.08008-16.2627,11.59277,0,18.91895,7.00391,19.24121,16.58496h-10.46582c-.4834-4.42871-3.30078-7.56836-8.69531-7.56836-4.99121,0-8.45215,2.65723-8.45215,6.7627,0,4.83057,4.91016,6.44092,9.66016,7.89014l2.81738.88574c5.31348,1.61035,15.61816,5.39355,15.61816,17.14746,0,11.0293-9.17773,16.26172-19.5625,16.26172Z"/>
    <path class="cls-1" d="m767.5957,317.4834c0-12.63965,9.17773-21.09326,20.93164-21.09326,9.33789,0,18.19434,4.9917,19.48242,15.5376h-10.30469c-.88574-3.70312-4.34766-6.60156-9.17773-6.60156-6.11914,0-10.62695,4.99219-10.62695,12.15723,0,7.08398,4.18652,11.83398,10.78809,11.83398,4.66895,0,7.80859-2.09375,9.09668-5.79688h10.38477c-1.36816,9.0166-9.0166,14.73242-19.48145,14.73242-12.55957,0-21.09277-8.61328-21.09277-20.76953Z"/>
    <path class="cls-1" d="m812.61035,285.84424c0-3.54297,2.97949-6.28027,6.36035-6.28027s6.19922,2.7373,6.19922,6.28027c0,3.30078-2.81836,6.19824-6.19922,6.19824s-6.36035-2.89746-6.36035-6.19824Zm1.20801,11.35059h10.30469v40.25342h-10.30469v-40.25342Z"/>
    <path class="cls-1" d="m869.51758,324.72852c-1.60938,8.29199-8.5332,13.52441-18.75781,13.52441-11.99512,0-20.68945-8.13086-20.68945-20.52832,0-13.2832,9.17773-21.33447,20.28711-21.33447,9.90234,0,19.08008,6.27979,19.08008,20.68994,0,.9668-.08105,1.85156-.16113,2.97949h-28.98242c.40332,5.7959,4.18652,9.98242,10.46582,9.98242,4.50879,0,7.72852-1.85156,8.85645-5.31348h9.90137Zm-29.14258-11.59277h19.24121c-.24219-4.99121-3.94531-8.5332-9.25879-8.5332-5.55469,0-9.25781,3.70312-9.98242,8.5332Z"/>
    <path class="cls-1" d="m876.04395,297.19482h9.41895l.88574,4.75049h.64453c2.41504-3.14014,5.7959-5.55518,11.83398-5.55518,9.58008,0,15.69824,6.11865,15.69824,16.66455v24.39355h-10.30469v-22.2998c0-6.60156-3.7832-9.82227-8.61426-9.82227-4.91016,0-9.25781,3.13965-9.25781,10.30469v21.81738h-10.30469v-40.25342Z"/>
    <path class="cls-1" d="m920.50391,317.4834c0-12.63965,9.17773-21.09326,20.93164-21.09326,9.33789,0,18.19434,4.9917,19.48242,15.5376h-10.30469c-.88574-3.70312-4.34766-6.60156-9.17773-6.60156-6.11914,0-10.62695,4.99219-10.62695,12.15723,0,7.08398,4.18652,11.83398,10.78809,11.83398,4.66895,0,7.80859-2.09375,9.09668-5.79688h10.38477c-1.36816,9.0166-9.0166,14.73242-19.48145,14.73242-12.55957,0-21.09277-8.61328-21.09277-20.76953Z"/>
    <path class="cls-1" d="m1004.37012,324.72852c-1.60938,8.29199-8.5332,13.52441-18.75781,13.52441-11.99512,0-20.68945-8.13086-20.68945-20.52832,0-13.2832,9.17773-21.33447,20.28711-21.33447,9.90234,0,19.08008,6.27979,19.08008,20.68994,0,.9668-.08105,1.85156-.16113,2.97949h-28.98145c.40234,5.7959,4.18555,9.98242,10.46484,9.98242,4.50879,0,7.72852-1.85156,8.85547-5.31348h9.90234Zm-29.14258-11.59277h19.24023c-.24121-4.99121-3.94434-8.5332-9.25781-8.5332-5.55469,0-9.25781,3.70312-9.98242,8.5332Z"/>
    <path class="cls-1" d="m1009.04395,324.56738h9.90234c.56348,4.34766,3.7832,6.03809,7.88965,6.03809,3.13965,0,5.87695-1.20801,5.87695-4.10645,0-3.05859-2.7373-4.34668-7.08496-5.47363l-3.7832-.96582c-5.39453-1.28906-11.5127-3.46191-11.5127-11.35156,0-8.05078,7.08398-12.31787,15.05469-12.31787,10.86816,0,15.85938,5.71631,16.42285,12.31787h-9.90234c-.40234-2.89844-2.65625-4.66992-6.44043-4.66992-3.13965,0-5.31348,1.53027-5.31348,4.10645,0,2.81738,2.7373,3.54199,6.60156,4.58887l3.78418.96582c7.00391,1.77148,11.99512,4.99121,11.99512,12.55859,0,8.29199-7.08496,11.99512-15.61816,11.99512-11.35156,0-17.30859-5.39355-17.87207-13.68555Z"/>
  </g>
</svg>